HIERARCHY
ROOT newVegas:Hips
{
	OFFSET 0.000000 96.479958 0.000000
	CHANNELS 6 Xposition Yposition Zposition Xrotation Yrotation Zrotation
	JOINT newVegas:Pelvis
	{
		OFFSET 0.000000 0.000000 0.000000
		CHANNELS 3 Xrotation Yrotation Zrotation
		JOINT newVegas:LeftUpLeg
		{
			OFFSET 18.735201 -5.666702 -4.541200
			CHANNELS 3 Xrotation Yrotation Zrotation
			JOINT newVegas:LeftLeg
			{
				OFFSET -0.021200 -31.938179 0.493100
				CHANNELS 3 Xrotation Yrotation Zrotation
				JOINT newVegas:LeftFoot
				{
					OFFSET 0.021200 -31.938179 -4.336299
					CHANNELS 3 Xrotation Yrotation Zrotation
					JOINT newVegas:LeftToeBase
					{
						OFFSET 0.943001 -26.722000 15.023500
						CHANNELS 3 Xrotation Yrotation Zrotation
						End Site
						{
							OFFSET 0.000000 30.670183 0.000000
						}
					}
				}
				JOINT newVegas:Left_PantLeg
				{
					OFFSET 0.663870 -9.044666 -1.108900
					CHANNELS 3 Xrotation Yrotation Zrotation
					End Site
					{
						OFFSET 1.415995 20.635357 0.000000
					}
				}
			}
		}
		JOINT newVegas:RightUpLeg
		{
			OFFSET -18.735201 -5.666702 -4.541200
			CHANNELS 3 Xrotation Yrotation Zrotation
			JOINT newVegas:RightLeg
			{
				OFFSET 0.018946 -31.938133 0.493100
				CHANNELS 3 Xrotation Yrotation Zrotation
				JOINT newVegas:RightFoot
				{
					OFFSET -0.018946 -31.938126 -4.336299
					CHANNELS 3 Xrotation Yrotation Zrotation
					JOINT newVegas:RightToeBase
					{
						OFFSET -0.943001 -26.722004 15.023500
						CHANNELS 3 Xrotation Yrotation Zrotation
						End Site
						{
							OFFSET 0.000000 30.670187 0.000000
						}
					}
				}
				JOINT newVegas:Right_PantLeg
				{
					OFFSET -0.661674 -9.044716 -1.108900
					CHANNELS 3 Xrotation Yrotation Zrotation
					End Site
					{
						OFFSET -1.415958 20.635269 0.000000
					}
				}
			}
		}
	}
	JOINT newVegas:Spine
	{
		OFFSET 0.000000 10.199997 -0.299500
		CHANNELS 3 Xrotation Yrotation Zrotation
		JOINT newVegas:Spine1
		{
			OFFSET 0.000000 11.900002 -1.516600
			CHANNELS 3 Xrotation Yrotation Zrotation
			JOINT newVegas:Spine2
			{
				OFFSET 0.000000 13.600006 -2.842500
				CHANNELS 3 Xrotation Yrotation Zrotation
				JOINT newVegas:Neck
				{
					OFFSET 0.000000 9.624100 -2.890100
					CHANNELS 3 Xrotation Yrotation Zrotation
					JOINT newVegas:Head
					{
						OFFSET 0.000000 14.068802 -1.351900
						CHANNELS 3 Xrotation Yrotation Zrotation
						JOINT newVegas:Hair_Back
						{
							OFFSET 0.000000 3.231903 -17.524799
							CHANNELS 3 Xrotation Yrotation Zrotation
							End Site
							{
								OFFSET 0.000000 19.849884 0.000000
							}
						}
						JOINT newVegas:Hair_Front
						{
							OFFSET 0.000000 31.260406 4.573800
							CHANNELS 3 Xrotation Yrotation Zrotation
							JOINT newVegas:Hair_Front1
							{
								OFFSET 0.000000 2.284103 11.993300
								CHANNELS 3 Xrotation Yrotation Zrotation
								JOINT newVegas:Hair_Front2
								{
									OFFSET 0.000000 2.284103 11.993300
									CHANNELS 3 Xrotation Yrotation Zrotation
									End Site
									{
										OFFSET 0.000000 12.208862 0.000000
									}
								}
							}
						}
						JOINT newVegas:Jowel
						{
							OFFSET 0.000000 -7.458206 6.864100
							CHANNELS 3 Xrotation Yrotation Zrotation
							End Site
							{
								OFFSET 0.000000 19.849884 0.000000
							}
						}
					}
				}
				JOINT newVegas:LeftShoulder
				{
					OFFSET 15.263000 10.923401 -0.547700
					CHANNELS 3 Xrotation Yrotation Zrotation
					JOINT newVegas:LeftArm
					{
						OFFSET 25.438599 -2.830597 -13.032500
						CHANNELS 3 Xrotation Yrotation Zrotation
						JOINT newVegas:LeftForeArm
						{
							OFFSET 29.960503 0.000000 0.000000
							CHANNELS 3 Xrotation Yrotation Zrotation
							JOINT newVegas:LeftHand
							{
								OFFSET 27.849251 0.000000 0.000000
								CHANNELS 3 Xrotation Yrotation Zrotation
								JOINT newVegas:LeftHandThumb1
								{
									OFFSET 4.487587 -3.305161 6.305391
									CHANNELS 3 Xrotation Yrotation Zrotation
									JOINT newVegas:LeftHandThumb2
									{
										OFFSET 5.480453 -3.164139 3.164143
										CHANNELS 3 Xrotation Yrotation Zrotation
										JOINT newVegas:LeftHandThumb3
										{
											OFFSET 5.159721 -2.978973 2.978967
											CHANNELS 3 Xrotation Yrotation Zrotation
											End Site
											{
												OFFSET 2.494507 5.926697 1.738678
											}
										}
									}
								}
								JOINT newVegas:LeftHandIndex1
								{
									OFFSET 18.578728 -0.527832 5.208049
									CHANNELS 3 Xrotation Yrotation Zrotation
									JOINT newVegas:LeftHandIndex2
									{
										OFFSET 3.192009 0.000000 0.000000
										CHANNELS 3 Xrotation Yrotation Zrotation
										JOINT newVegas:LeftHandIndex3
										{
											OFFSET 3.835129 0.000000 0.000000
											CHANNELS 3 Xrotation Yrotation Zrotation
											End Site
											{
												OFFSET -0.034599 3.816971 0.371180
											}
										}
									}
								}
								JOINT newVegas:LeftHandMiddle1
								{
									OFFSET 18.476105 0.000000 0.000000
									CHANNELS 3 Xrotation Yrotation Zrotation
									JOINT newVegas:LeftHandMiddle2
									{
										OFFSET 3.324875 0.000000 0.000000
										CHANNELS 3 Xrotation Yrotation Zrotation
										JOINT newVegas:LeftHandMiddle3
										{
											OFFSET 4.596550 0.000000 0.000000
											CHANNELS 3 Xrotation Yrotation Zrotation
											End Site
											{
												OFFSET 0.057701 4.578827 0.399218
											}
										}
									}
								}
								JOINT newVegas:LeftHandRing1
								{
									OFFSET 17.732719 0.121887 -4.201567
									CHANNELS 3 Xrotation Yrotation Zrotation
									JOINT newVegas:LeftHandRing2
									{
										OFFSET 2.733170 0.000000 0.000000
										CHANNELS 3 Xrotation Yrotation Zrotation
										JOINT newVegas:LeftHandRing3
										{
											OFFSET 3.178268 0.000000 0.000000
											CHANNELS 3 Xrotation Yrotation Zrotation
											End Site
											{
												OFFSET 0.119102 3.170624 0.185394
											}
										}
									}
								}
								JOINT newVegas:LeftHandPinky1
								{
									OFFSET 15.989624 -0.606689 -7.535461
									CHANNELS 3 Xrotation Yrotation Zrotation
									JOINT newVegas:LeftHandPinky2
									{
										OFFSET 2.538986 0.000000 0.000000
										CHANNELS 3 Xrotation Yrotation Zrotation
										JOINT newVegas:LeftHandPinky3
										{
											OFFSET 2.593102 0.000000 0.000000
											CHANNELS 3 Xrotation Yrotation Zrotation
											End Site
											{
												OFFSET -0.150902 2.584198 0.152708
											}
										}
									}
								}
							}
							JOINT newVegas:Left_Sleeve
							{
								OFFSET 0.267448 -0.649796 0.577675
								CHANNELS 3 Xrotation Yrotation Zrotation
								End Site
								{
									OFFSET 0.000000 15.991241 0.000000
								}
							}
							JOINT newVegas:Left_CapeC
							{
								OFFSET 15.715958 -8.608795 -6.935905
								CHANNELS 3 Xrotation Yrotation Zrotation
								JOINT newVegas:Left_CapeC1
								{
									OFFSET 0.000000 -8.688499 0.000000
									CHANNELS 3 Xrotation Yrotation Zrotation
									End Site
									{
										OFFSET 0.000000 8.688499 0.000000
									}
								}
							}
						}
						JOINT newVegas:Left_CapeB
						{
							OFFSET 26.118385 -8.608795 -7.079235
							CHANNELS 3 Xrotation Yrotation Zrotation
							JOINT newVegas:Left_CapeB1
							{
								OFFSET 0.000000 -8.688499 0.000000
								CHANNELS 3 Xrotation Yrotation Zrotation
								End Site
								{
									OFFSET 0.000000 8.688499 0.000000
								}
							}
						}
						JOINT newVegas:Left_CapeA
						{
							OFFSET 5.115639 -8.608795 -10.395809
							CHANNELS 3 Xrotation Yrotation Zrotation
							JOINT newVegas:Left_CapeA1
							{
								OFFSET 0.000000 -8.688499 0.000000
								CHANNELS 3 Xrotation Yrotation Zrotation
								End Site
								{
									OFFSET 0.000000 8.688499 0.000000
								}
							}
						}
					}
				}
				JOINT newVegas:RightShoulder
				{
					OFFSET -15.263000 10.923401 -0.547700
					CHANNELS 3 Xrotation Yrotation Zrotation
					JOINT newVegas:RightArm
					{
						OFFSET -25.438599 -2.830597 -13.032500
						CHANNELS 3 Xrotation Yrotation Zrotation
						JOINT newVegas:RightForeArm
						{
							OFFSET -29.960503 0.000000 0.000000
							CHANNELS 3 Xrotation Yrotation Zrotation
							JOINT newVegas:RightHand
							{
								OFFSET -27.849251 0.000000 0.000000
								CHANNELS 3 Xrotation Yrotation Zrotation
								JOINT newVegas:RightHandThumb1
								{
									OFFSET -4.487587 -3.305161 6.305391
									CHANNELS 3 Xrotation Yrotation Zrotation
									JOINT newVegas:RightHandThumb2
									{
										OFFSET -5.480453 -3.164139 3.164143
										CHANNELS 3 Xrotation Yrotation Zrotation
										JOINT newVegas:RightHandThumb3
										{
											OFFSET -5.159721 -2.978973 2.978967
											CHANNELS 3 Xrotation Yrotation Zrotation
											End Site
											{
												OFFSET -2.494507 5.926697 1.738678
											}
										}
									}
								}
								JOINT newVegas:RightHandIndex1
								{
									OFFSET -18.578728 -0.527832 5.208049
									CHANNELS 3 Xrotation Yrotation Zrotation
									JOINT newVegas:RightHandIndex2
									{
										OFFSET -3.192009 0.000000 0.000000
										CHANNELS 3 Xrotation Yrotation Zrotation
										JOINT newVegas:RightHandIndex3
										{
											OFFSET -3.835129 0.000000 0.000000
											CHANNELS 3 Xrotation Yrotation Zrotation
											End Site
											{
												OFFSET 0.034599 3.816971 0.371180
											}
										}
									}
								}
								JOINT newVegas:RightHandMiddle1
								{
									OFFSET -18.476105 0.000000 0.000000
									CHANNELS 3 Xrotation Yrotation Zrotation
									JOINT newVegas:RightHandMiddle2
									{
										OFFSET -3.324875 0.000000 0.000000
										CHANNELS 3 Xrotation Yrotation Zrotation
										JOINT newVegas:RightHandMiddle3
										{
											OFFSET -4.596550 0.000000 0.000000
											CHANNELS 3 Xrotation Yrotation Zrotation
											End Site
											{
												OFFSET -0.057701 4.578827 0.399218
											}
										}
									}
								}
								JOINT newVegas:RightHandRing1
								{
									OFFSET -17.732719 0.121887 -4.201567
									CHANNELS 3 Xrotation Yrotation Zrotation
									JOINT newVegas:RightHandRing2
									{
										OFFSET -2.733170 0.000000 0.000000
										CHANNELS 3 Xrotation Yrotation Zrotation
										JOINT newVegas:RightHandRing3
										{
											OFFSET -3.178268 0.000000 0.000000
											CHANNELS 3 Xrotation Yrotation Zrotation
											End Site
											{
												OFFSET -0.119102 3.170624 0.185394
											}
										}
									}
								}
								JOINT newVegas:RightHandPinky1
								{
									OFFSET -15.989624 -0.606689 -7.535461
									CHANNELS 3 Xrotation Yrotation Zrotation
									JOINT newVegas:RightHandPinky2
									{
										OFFSET -2.538986 0.000000 0.000000
										CHANNELS 3 Xrotation Yrotation Zrotation
										JOINT newVegas:RightHandPinky3
										{
											OFFSET -2.593102 0.000000 0.000000
											CHANNELS 3 Xrotation Yrotation Zrotation
											End Site
											{
												OFFSET 0.150902 2.584198 0.152708
											}
										}
									}
								}
							}
							JOINT newVegas:Right_CapeC
							{
								OFFSET -15.715958 -8.608795 -6.935905
								CHANNELS 3 Xrotation Yrotation Zrotation
								JOINT newVegas:Right_CapeC1
								{
									OFFSET 0.000000 -8.688499 0.000000
									CHANNELS 3 Xrotation Yrotation Zrotation
									End Site
									{
										OFFSET 0.000000 8.688499 0.000000
									}
								}
							}
							JOINT newVegas:Right_Sleeve
							{
								OFFSET -0.267448 -0.649994 0.577675
								CHANNELS 3 Xrotation Yrotation Zrotation
								End Site
								{
									OFFSET 0.000000 15.991302 0.000000
								}
							}
						}
						JOINT newVegas:Right_CapeA
						{
							OFFSET -5.115540 -8.608795 -10.395824
							CHANNELS 3 Xrotation Yrotation Zrotation
							JOINT newVegas:Right_CapeA1
							{
								OFFSET 0.000000 -8.688499 0.000000
								CHANNELS 3 Xrotation Yrotation Zrotation
								End Site
								{
									OFFSET 0.000000 8.688499 0.000000
								}
							}
						}
						JOINT newVegas:Right_CapeB
						{
							OFFSET -26.118187 -8.608795 -7.079266
							CHANNELS 3 Xrotation Yrotation Zrotation
							JOINT newVegas:Right_CapeB1
							{
								OFFSET 0.000000 -8.688499 0.000000
								CHANNELS 3 Xrotation Yrotation Zrotation
								End Site
								{
									OFFSET 0.000000 8.688499 0.000000
								}
							}
						}
					}
				}
				JOINT newVegas:Left_Collar
				{
					OFFSET 18.625099 8.655502 8.828100
					CHANNELS 3 Xrotation Yrotation Zrotation
					JOINT newVegas:Left_Collar1
					{
						OFFSET 14.783401 10.540405 -1.259500
						CHANNELS 3 Xrotation Yrotation Zrotation
						End Site
						{
							OFFSET 0.000000 18.199875 0.000000
						}
					}
				}
				JOINT newVegas:Collar_Back
				{
					OFFSET 0.000000 15.630707 -20.132601
					CHANNELS 3 Xrotation Yrotation Zrotation
					End Site
					{
						OFFSET 0.000000 22.523010 0.000000
					}
				}
				JOINT newVegas:Left_Peck
				{
					OFFSET 17.239599 -5.132599 25.482599
					CHANNELS 3 Xrotation Yrotation Zrotation
					End Site
					{
						OFFSET 0.000000 22.523010 0.000000
					}
				}
				JOINT newVegas:Right_Peck
				{
					OFFSET -17.239599 -5.132202 25.482599
					CHANNELS 3 Xrotation Yrotation Zrotation
					End Site
					{
						OFFSET 0.000000 22.523010 0.000000
					}
				}
				JOINT newVegas:Right_Collar
				{
					OFFSET -18.625099 8.655792 8.828100
					CHANNELS 3 Xrotation Yrotation Zrotation
					JOINT newVegas:Right_Collar1
					{
						OFFSET -14.783401 10.539993 -1.259500
						CHANNELS 3 Xrotation Yrotation Zrotation
						End Site
						{
							OFFSET 0.000000 18.199631 0.000000
						}
					}
				}
			}
		}
		JOINT newVegas:Belly
		{
			OFFSET 0.000000 -6.540398 9.014299
			CHANNELS 3 Xrotation Yrotation Zrotation
			End Site
			{
				OFFSET 0.000000 11.566666 0.000000
			}
		}
	}
	JOINT newVegas:ElvisFacialAnim_Joint
	{
		OFFSET 1.000000 -95.330101 -8.825800
		CHANNELS 3 Xrotation Yrotation Zrotation
		End Site
		{
			OFFSET 0.000000 35.315800 0.000000
		}
	}
}
MOTION
Frames: 4
Frame Time: 0.016667
47.104050 87.835144 26.934792 -10.203239 -57.722987 -10.277379 -0.000000 -0.000003 -0.000000 -15.177821 11.830216 8.344974 52.882320 -9.984525 1.648137 -33.478367 15.226781 2.084937 -0.000000 0.000002 0.000000 0.000002 -0.000002 0.000001 -17.200537 18.337943 -18.724861 36.292521 -5.755516 -7.695095 39.069061 2.239183 26.795775 -0.000001 -0.000001 -0.000002 -0.000002 0.000000 -0.000006 9.294653 8.899891 -0.841266 2.556081 17.404589 -2.385635 3.099505 13.576355 -1.746532 -0.333323 -1.642678 0.117561 -0.333334 -1.642676 0.117563 0.000000 -0.000000 0.000000 -0.333330 -1.642683 0.117562 -0.333325 -1.642661 0.117558 -0.000001 0.000001 0.000000 0.000000 -0.000000 -0.000000 -6.510679 -24.283954 -29.301512 -16.491702 27.629847 -48.402774 0.000007 -37.042356 0.000001 20.414551 12.547357 -11.679955 -0.367423 1.022227 8.846110 11.332615 25.661871 5.956436 0.000003 -0.000002 -0.000005 -3.147023 -1.008766 -32.685423 0.795790 2.949878 -30.188876 0.000001 -0.000002 -0.000001 1.080585 5.663157 -36.569991 0.703192 2.784818 -28.337844 0.000003 -0.000004 0.000001 2.638191 7.725017 -36.880457 0.871341 3.075881 -31.625883 -0.000001 0.000001 0.000001 4.773545 10.152500 -39.332044 0.944669 3.191705 -32.967298 -0.000001 -0.000002 0.000000 0.000000 0.000001 -0.000000 0.000000 0.000001 -0.000000 0.000000 0.000001 0.000000 -0.000000 0.000000 -0.000001 0.000000 0.000000 -0.000001 -0.000000 0.000000 -0.000001 0.000000 0.000000 -0.000001 16.094128 -29.062592 21.606091 17.231230 -22.622060 41.644807 -0.000045 113.407484 0.000034 50.459027 7.307174 26.799244 11.446980 0.444934 -2.639172 0.868413 -5.095149 -5.270565 0.000005 0.000001 -0.000000 -1.101638 2.714062 12.099570 0.231089 -1.450238 18.106189 0.000001 -0.000000 -0.000000 -0.590499 -0.253849 13.946813 0.529557 -2.158712 27.563008 0.000002 0.000000 -0.000000 0.152622 -3.304636 16.160605 1.052584 -2.950877 39.255928 0.000001 0.000002 -0.000001 1.396635 -6.662541 20.820599 0.310324 -1.673160 21.012848 -0.000000 0.000001 0.000002 -0.000003 0.000001 0.000001 -0.000002 0.000001 -0.000003 -0.000002 0.000001 0.000002 0.000001 -0.000002 -0.000001 0.000001 -0.000001 -0.000000 0.000001 -0.000002 -0.000001 0.000001 -0.000001 -0.000000 0.000000 0.000001 0.000000 0.000000 0.000001 0.000000 0.000000 0.000001 0.000000 0.000000 0.000001 0.000000 0.000000 0.000001 0.000000 0.000000 0.000001 0.000000 0.000000 0.000001 0.000000 -0.000000 0.000003 -0.000000 -0.000000 -0.000003 -0.000000 
47.084759 87.793114 28.310488 -10.790565 -56.941286 -10.727626 0.000000 -0.000000 0.000000 -13.898377 11.994211 7.009251 52.903756 -10.282181 2.001649 -34.438852 15.227104 3.253970 -0.000000 -0.000000 -0.000000 -0.000001 -0.000000 -0.000000 -20.489471 20.070784 -15.680916 40.543211 -4.594728 -7.880099 38.978483 3.889178 23.539012 0.000001 -0.000001 -0.000002 0.000000 0.000001 -0.000001 9.725103 7.950553 -0.929930 2.662958 17.145937 -2.401210 3.209015 13.582547 -1.840705 -0.334172 -1.641655 0.146712 -0.334177 -1.641660 0.146714 -0.000000 0.000002 0.000000 -0.334173 -1.641664 0.146713 -0.334176 -1.641650 0.146712 -0.000001 -0.000001 0.000000 -0.000000 0.000002 -0.000000 -6.690961 -24.917025 -29.325745 -17.150496 26.242825 -47.937741 0.000001 -37.261400 -0.000009 18.651160 12.125995 -10.193060 -0.303179 1.156290 8.901287 11.336637 25.654612 5.977714 0.000002 -0.000002 -0.000003 -3.164690 -0.956356 -33.003583 0.813136 2.979428 -30.524047 -0.000001 -0.000004 -0.000001 1.100518 5.692187 -36.934644 0.718675 2.813290 -28.654816 -0.000003 -0.000004 -0.000000 2.669897 7.741930 -37.250971 0.890055 3.106037 -31.973205 0.000001 0.000001 0.000001 4.816357 10.146132 -39.734100 0.963084 3.219894 -33.296616 0.000001 -0.000005 -0.000002 0.000001 0.000003 -0.000001 0.000001 0.000003 -0.000001 -0.000000 0.000003 0.000000 0.000001 0.000001 0.000001 0.000001 0.000001 -0.000000 0.000001 0.000001 0.000001 0.000001 -0.000000 0.000000 16.288809 -29.166721 21.993793 17.892155 -24.268786 42.118730 0.000079 113.885454 -0.000079 41.063842 5.287857 26.351245 11.448281 0.442794 -2.640245 0.869860 -5.099415 -5.271814 -0.000001 -0.000002 -0.000001 -1.117758 2.690251 12.294180 0.236134 -1.465549 18.304396 0.000001 -0.000000 -0.000001 -0.596858 -0.274207 14.142335 0.537015 -2.172928 27.760208 -0.000002 0.000000 -0.000001 0.155903 -3.319399 16.357164 1.061209 -2.961366 39.422964 0.000000 0.000001 -0.000001 1.410543 -6.670723 21.018333 0.316094 -1.688116 21.209798 0.000001 -0.000000 0.000001 -0.000001 0.000002 0.000003 0.000000 -0.000001 0.000000 -0.000001 0.000003 -0.000000 0.000003 0.000001 0.000000 0.000003 0.000002 0.000001 0.000003 0.000001 0.000000 0.000003 0.000002 0.000001 0.000000 -0.000000 -0.000000 0.000000 -0.000000 -0.000000 0.000000 -0.000000 -0.000000 0.000000 -0.000000 -0.000000 0.000000 -0.000000 -0.000000 0.000000 -0.000000 -0.000000 0.000000 -0.000000 -0.000000 -0.000000 -0.000002 0.000000 0.000000 -0.000000 0.000000 
47.155434 87.934265 29.768324 -11.237292 -55.935035 -11.188686 -0.000000 -0.000001 0.000000 -12.538869 12.154997 5.808685 52.428105 -10.275249 2.314192 -34.963745 14.695178 4.262029 0.000000 0.000000 -0.000000 -0.000003 -0.000002 0.000000 -24.593968 21.457355 -12.039524 46.481971 -4.344317 -8.124107 35.800501 6.109232 20.700719 0.000001 0.000000 -0.000001 0.000001 0.000004 -0.000000 10.122476 6.890925 -0.799117 2.778477 16.848642 -2.408986 3.327782 13.548339 -1.925066 -0.335426 -1.635050 0.172310 -0.335426 -1.635055 0.172310 0.000000 -0.000001 0.000000 -0.335358 -1.635037 0.172311 -0.335501 -1.635049 0.172307 0.000000 0.000000 -0.000001 0.000000 -0.000001 -0.000000 -6.858134 -25.585235 -29.281233 -17.849559 24.629993 -47.582014 -0.000006 -37.102370 -0.000022 17.190200 11.684779 -8.623608 -0.239663 1.289017 8.955658 11.340598 25.647446 5.998812 0.000001 -0.000002 -0.000003 -3.181869 -0.904415 -33.318424 0.830453 3.008586 -30.855745 0.000000 -0.000002 -0.000001 1.120405 5.720785 -37.295527 0.734145 2.841390 -28.968516 -0.000002 0.000001 -0.000001 2.701359 7.758491 -37.617673 0.908782 3.135764 -32.316944 -0.000001 -0.000001 0.000001 4.858573 10.139639 -40.131931 0.981475 3.247655 -33.622521 -0.000001 -0.000003 -0.000004 -0.000002 0.000002 -0.000001 -0.000002 0.000002 -0.000001 -0.000003 0.000002 -0.000001 0.000001 0.000000 0.000000 0.000001 0.000000 0.000000 0.000001 0.000000 0.000000 0.000001 -0.000000 -0.000000 16.428060 -29.286150 22.283893 18.343112 -25.660565 42.553055 0.000033 114.043962 -0.000032 34.092514 4.326356 26.246926 11.449750 0.440219 -2.641572 0.872396 -5.108719 -5.273683 0.000003 0.000000 -0.000000 -1.093848 2.717390 12.021030 0.229015 -1.443896 18.024084 0.000003 -0.000000 -0.000000 -0.586987 -0.249511 13.867911 0.526559 -2.152977 27.483372 0.000003 -0.000000 -0.000000 0.150485 -3.295857 16.081645 1.039535 -2.934845 39.001548 -0.000003 -0.000001 -0.000001 1.388034 -6.651379 20.741456 0.308008 -1.667110 20.933208 0.000001 -0.000000 -0.000000 -0.000004 0.000000 -0.000003 -0.000001 -0.000001 -0.000002 -0.000004 0.000000 -0.000002 -0.000002 0.000001 -0.000001 -0.000002 0.000001 -0.000000 -0.000002 0.000001 -0.000001 -0.000003 0.000001 -0.000000 0.000001 -0.000000 0.000000 0.000001 -0.000000 0.000000 0.000001 -0.000000 0.000000 0.000001 -0.000000 0.000000 0.000001 -0.000000 0.000000 0.000001 -0.000000 0.000000 0.000001 -0.000000 0.000000 -0.000000 -0.000001 0.000000 -0.000000 -0.000001 0.000000 
47.264214 88.182434 31.259037 -11.439684 -54.665259 -11.529926 -0.000000 -0.000001 -0.000000 -11.251264 12.276847 4.850975 51.653736 -10.057820 2.518226 -35.151364 13.612127 5.101727 -0.000000 -0.000002 -0.000000 -0.000000 -0.000004 0.000002 -28.485174 22.122108 -8.422612 51.558236 -4.516785 -8.074709 32.351068 9.162344 18.066612 0.000002 -0.000003 0.000003 0.000001 0.000000 0.000001 10.441762 5.664687 -0.508965 2.886334 16.500525 -2.402979 3.439224 13.460949 -1.993053 -0.331650 -1.621514 0.196741 -0.331647 -1.621495 0.196738 0.000000 -0.000001 0.000000 -0.331576 -1.621504 0.196741 -0.331650 -1.621508 0.196741 -0.000001 -0.000001 0.000000 0.000000 -0.000001 -0.000000 -7.018226 -26.326418 -29.169303 -18.434949 23.003975 -47.374014 0.000009 -36.923262 0.000020 16.093147 11.349604 -7.118682 -0.177021 1.420187 9.009151 11.344500 25.640346 6.019594 0.000006 -0.000002 -0.000003 -3.198560 -0.852993 -33.629331 0.847731 3.037279 -31.183317 -0.000004 0.000001 0.000001 1.140225 5.748936 -37.651974 0.749564 2.869054 -29.278316 -0.000002 -0.000001 0.000000 2.732495 7.774663 -37.979847 0.927433 3.165043 -32.656429 -0.000003 0.000003 0.000002 4.900113 10.133014 -40.524865 0.999772 3.274986 -33.944411 0.000001 -0.000002 -0.000001 -0.000001 0.000002 -0.000000 -0.000001 0.000002 -0.000000 -0.000002 0.000002 0.000000 -0.000001 0.000000 -0.000001 -0.000001 0.000000 -0.000001 -0.000001 0.000000 -0.000001 -0.000001 0.000000 -0.000001 16.511900 -29.414705 22.476727 18.832068 -26.862717 43.040492 0.000031 114.021341 -0.000042 28.272818 3.883401 26.345214 11.451382 0.436216 -2.643295 0.877849 -5.126585 -5.276879 0.000001 -0.000003 -0.000001 -1.053549 2.761291 11.566176 0.217389 -1.407669 17.556988 0.000001 0.000001 -0.000002 -0.570155 -0.209047 13.411048 0.509373 -2.119624 27.022387 -0.000001 0.000000 0.000000 0.142054 -3.257676 15.622895 1.001910 -2.887830 38.260729 -0.000001 -0.000001 -0.000001 1.350207 -6.617244 20.280701 0.294738 -1.632046 20.472664 -0.000001 -0.000002 -0.000001 -0.000003 0.000000 -0.000001 -0.000001 0.000001 0.000000 -0.000003 0.000000 -0.000002 -0.000001 -0.000002 -0.000002 -0.000001 -0.000002 -0.000001 -0.000001 -0.000002 -0.000002 -0.000001 -0.000002 -0.000001 0.000000 0.000002 -0.000000 0.000000 0.000002 -0.000000 0.000000 0.000002 -0.000000 0.000000 0.000002 -0.000000 0.000000 0.000002 -0.000000 0.000000 0.000002 -0.000000 0.000000 0.000002 -0.000000 0.000000 -0.000002 0.000000 -0.000000 -0.000001 -0.000000 
